HIERARCHY
ROOT root
{
	OFFSET	0	13.1	24.9
	CHANNELS 6  Xposition Yposition Zposition Xrotation Yrotation Zrotation
	JOINT spine_1
	{
		OFFSET	0	9.99999	0
		CHANNELS 3  Xrotation Yrotation Zrotation
		JOINT spine_2
		{
			OFFSET	0	112	-10
			CHANNELS 3  Xrotation Yrotation Zrotation
			JOINT spine_3
			{
				OFFSET	0	206.5	19.3
				CHANNELS 3  Xrotation Yrotation Zrotation
				JOINT spine_4
				{
					OFFSET	0	110.4	14.6
					CHANNELS 3  Xrotation Yrotation Zrotation
					JOINT neck_1
					{
						OFFSET	0	71.8	-50.3
						CHANNELS 3  Xrotation Yrotation Zrotation
						JOINT neck_2
						{
							OFFSET	0	86.2	-25.8
							CHANNELS 3  Xrotation Yrotation Zrotation
							JOINT head_ee
							{
								OFFSET	0	179.8	-8.7
								CHANNELS 3  Xrotation Yrotation Zrotation
								End Site
								{
									OFFSET	1	0	0
								}
							}
						}
					}
					JOINT left_clavicle
					{
						OFFSET	-43.2	22.4	-70.8
						CHANNELS 3  Xrotation Yrotation Zrotation
						JOINT left_shoulder
						{
							OFFSET	-93.9	-5.79999	48.7
							CHANNELS 3  Xrotation Yrotation Zrotation
							JOINT left_elbow
							{
								OFFSET	-291.4	-30.8	15.2
								CHANNELS 3  Xrotation Yrotation Zrotation
								JOINT left_lowarm_twist
								{
									OFFSET	-110.7	-3.89999	13.6
									CHANNELS 3  Xrotation Yrotation Zrotation
									JOINT left_hand
									{
										OFFSET	-110.7	-3.89999	13.6
										CHANNELS 3  Xrotation Yrotation Zrotation
										JOINT left_ee
										{
											OFFSET	-80.8	-5.10001	12.1
											CHANNELS 3  Xrotation Yrotation Zrotation
											End Site
											{
												OFFSET	1	0	0
											}
										}
									}
								}
							}
						}
					}
					JOINT right_clavicle
					{
						OFFSET	43.2	22.4	-70.8
						CHANNELS 3  Xrotation Yrotation Zrotation
						JOINT right_shoulder
						{
							OFFSET	93.9	-5.79999	48.7
							CHANNELS 3  Xrotation Yrotation Zrotation
							JOINT right_elbow
							{
								OFFSET	291.4	-30.8	15.2
								CHANNELS 3  Xrotation Yrotation Zrotation
								JOINT right_lowarm_twist
								{
									OFFSET	110.7	-3.89999	13.6
									CHANNELS 3  Xrotation Yrotation Zrotation
									JOINT right_hand
									{
										OFFSET	110.7	-3.89999	13.6
										CHANNELS 3  Xrotation Yrotation Zrotation
										JOINT right_ee
										{
											OFFSET	80.8	-5.10001	12.1
											CHANNELS 3  Xrotation Yrotation Zrotation
											End Site
											{
												OFFSET	1	0	0
											}
										}
									}
								}
							}
						}
					}
				}
			}
		}
	}
	JOINT left_hip
	{
		OFFSET	-82.8	-127.5	0.300001
		CHANNELS 3  Xrotation Yrotation Zrotation
		JOINT left_knee
		{
			OFFSET	-28.2	-396.7	2.2
			CHANNELS 3  Xrotation Yrotation Zrotation
			JOINT left_ankle
			{
				OFFSET	-11.7	-411.3	35.4
				CHANNELS 3  Xrotation Yrotation Zrotation
				JOINT left_toes
				{
					OFFSET	0	-60	-88.6
					CHANNELS 3  Xrotation Yrotation Zrotation
					JOINT left_foot_ee
					{
						OFFSET	-22.5	-16.5	-42.2
						CHANNELS 3  Xrotation Yrotation Zrotation
						End Site
						{
							OFFSET	1	0	0
						}
					}
				}
			}
		}
	}
	JOINT right_hip
	{
		OFFSET	82.8	-127.5	0.300001
		CHANNELS 3  Xrotation Yrotation Zrotation
		JOINT right_knee
		{
			OFFSET	28.2	-396.7	2.2
			CHANNELS 3  Xrotation Yrotation Zrotation
			JOINT right_ankle
			{
				OFFSET	11.7	-411.3	35.4
				CHANNELS 3  Xrotation Yrotation Zrotation
				JOINT right_toes
				{
					OFFSET	0	-60	-88.6
					CHANNELS 3  Xrotation Yrotation Zrotation
					JOINT right_foot_ee
					{
						OFFSET	22.5	-16.5	-42.2
						CHANNELS 3  Xrotation Yrotation Zrotation
						End Site
						{
							OFFSET	1	0	0
						}
					}
				}
			}
		}
	}
}
MOTION
Frames: 8
Frame Time: 0.02
1153.55254837 726.574 -1827.1455916 -23.7380148231 27.1191936284 8.24077625567 9.55669 0.42499 1.70509 9.55826 0.315647 1.72867 9.56431 0.237987 1.74106 9.56044 0.509929 1.68165 -18.6006 7.99086 -4.03422 -18.9631 17.5195 -0.548904 -0.0 0.0 -0.0 -2.3018 12.6019 -2.34521 -26.7134 -33.6377 69.2586 0.467914 -13.0504 0.0535208 -84.4845 -8.38743 5.19696 -3.42972 7.95638 -19.2937 -0.0 0.0 -0.0 10.6019 4.2526 -21.0921 64.6232 -69.4557 -14.6137 0.200691 5.67764 -0.00995175 79.2465 3.75194 8.56672 -4.85202 -8.62735 29.0745 0.0 0.0 0.0 53.1514 12.4693 -8.56151 -73.4081 -3.80776 9.82215 21.3394 -7.22121 -2.98655 5.28584 -0.0 -0.0 -0.0 0.0 -0.0 32.7791 12.963 -5.92117 -17.2209 -0.31837 -2.6136 41.7214 -13.6708 5.06429 12.6095 -0.0 -0.0 0.0 0.0 0.0 
1138.21433552 731.296 -1847.73221227 -23.8490840112 29.7435811732 10.2436481942 9.52155 0.421002 1.62514 9.52296 0.316752 1.64862 9.52894 0.241643 1.66129 9.52544 0.500946 1.6023 -19.4458 6.35815 -5.19967 -19.6874 14.9362 -2.20916 -0.0 0.0 -0.0 -1.2289 12.6597 -0.546925 -32.2365 -37.2194 64.5795 0.412845 -11.5585 0.0417842 -85.1821 -8.47468 5.18007 -3.98882 7.925 -23.2239 -0.0 0.0 -0.0 11.1639 5.31021 -22.3398 75.0473 -68.5151 -5.70829 0.195909 5.54318 -0.00948414 81.5283 4.01588 8.69356 -6.19406 -15.0144 34.5856 0.0 0.0 0.0 56.4069 5.5689 -7.09345 -71.0925 -3.50899 9.62546 37.1436 4.76626 -4.60205 7.19051 -0.0 -0.0 -0.0 0.0 -0.0 28.0225 17.9919 -7.66838 -10.1897 -0.283581 -1.53602 40.7794 -8.48477 4.93434 8.84945 -0.0 -0.0 0.0 0.0 0.0 
1107.63318567 735.391 -1855.14943488 -24.4873918829 32.426726023 12.028424449 9.63537 0.325773 1.45732 9.63652 0.23239 1.47509 9.63995 0.168078 1.4838 9.6371 0.400282 1.43865 -21.5632 2.97983 -3.5517 -21.6203 7.45712 -1.96724 -0.0 0.0 -0.0 -1.20701 14.7186 -0.210029 -39.7404 -38.9423 60.752 0.51452 -14.2992 0.0645396 -85.1142 -8.4662 5.18176 -4.86343 4.46473 -31.8486 -0.0 0.0 -0.0 11.1403 2.89459 -22.1967 80.2218 -67.1783 -0.966429 0.200674 5.67715 -0.00995005 85.2351 4.45469 8.87691 -9.3642 -30.663 42.0652 0.0 0.0 0.0 56.5958 4.99213 -6.7519 -66.7037 -2.96565 9.22047 41.0329 12.1584 -4.98636 13.7619 -0.0 -0.0 -0.0 0.0 -0.0 25.6127 16.2301 -7.68614 -8.10756 -0.247935 -1.21853 38.8482 -3.88168 4.75777 6.58632 -0.0 -0.0 0.0 0.0 0.0 
1063.90857721 738.788 -1862.53498028 -25.7921872876 37.004042317 15.4576024095 9.67164 0.194315 1.38258 9.6727 0.105952 1.39214 9.67298 0.0461281 1.3954 9.67036 0.265906 1.37061 -20.5718 0.901509 -3.41752 -20.5578 3.44151 -2.78901 -0.0 0.0 -0.0 -0.0658253 14.704 1.62501 -47.4311 -38.8112 58.3851 0.475978 -13.2674 0.0553565 -84.7537 -8.42113 5.19057 -5.6508 11.9407 -32.8128 -0.0 0.0 -0.0 11.2708 -1.98611 -22.1573 87.4636 -67.0984 4.51504 0.191063 5.4069 -0.00902184 85.3444 4.46781 8.88189 -9.17237 -30.5879 40.6903 0.0 0.0 0.0 54.6293 2.02681 -6.5528 -58.5202 -2.04233 8.3604 41.6924 16.4211 -5.10575 25.8499 -0.0 -0.0 -0.0 0.0 -0.0 23.3852 15.2391 -8.59855 -6.89063 -0.221767 -1.03362 38.6531 1.53126 4.77126 4.57873 -0.0 -0.0 0.0 0.0 0.0 
1028.80510286 738.37 -1871.203542 -27.2791276525 39.3106752893 18.510350849 9.91345 0.172251 1.30269 9.91439 0.0890161 1.31101 9.91433 0.0382176 1.31347 9.91201 0.245159 1.29096 -20.7888 -1.48399 -2.57359 -20.7735 -1.59047 -3.02643 -0.0 0.0 -0.0 -0.0764586 13.4079 1.45585 -54.0367 -40.2063 57.2166 0.54571 -15.1273 0.0724615 -83.855 -8.3085 5.21127 -6.03831 11.6148 -36.1177 -0.0 0.0 -0.0 10.8207 -6.24609 -20.8429 90.5219 -67.8301 3.92104 0.171845 4.86582 -0.00730134 85.2894 4.46121 8.87939 -10.2264 -31.4765 47.9501 0.0 0.0 0.0 53.2565 1.08842 -6.31063 -49.5838 -1.18612 7.28351 42.1761 24.4993 -5.355 34.5944 -0.0 -0.0 -0.0 0.0 -0.0 21.4212 18.1252 -9.90676 -4.94998 -0.171922 -0.739985 39.7876 0.428799 4.86093 2.95789 -0.0 -0.0 0.0 0.0 0.0 
997.228248122 730.924 -1874.72305562 -27.0302915903 41.8347342398 20.0128627203 9.8207 0.388485 1.1466 9.82138 0.314742 1.169 9.8262 0.267501 1.1807 9.82453 0.450602 1.12365 -19.9757 -2.90963 -3.19826 -19.968 -3.98376 -4.1813 -0.0 0.0 -0.0 0.595494 11.4824 2.36287 -58.548 -41.0616 56.0788 0.564071 -15.6118 0.077328 -84.269 -8.36042 5.20196 -5.81156 8.98839 -36.3093 -0.0 0.0 -0.0 10.4342 -10.3799 -19.6272 91.9496 -69.268 1.88579 0.177213 5.01703 -0.0077637 85.4956 4.48596 8.88873 -10.2626 -31.6363 47.9898 0.0 0.0 0.0 52.7512 3.66551 -8.81137 -41.9081 -0.592599 6.2633 40.7158 25.3253 -5.24705 40.1563 -0.0 -0.0 -0.0 0.0 -0.0 19.1047 18.5154 -11.0441 -4.77 -0.166796 -0.71284 39.8006 2.01295 4.87658 2.89691 -0.0 -0.0 0.0 0.0 0.0 
977.546204376 727.777 -1881.06108514 -27.233558502 41.8659875499 20.8253797548 9.56131 0.41707 1.03879 9.56184 0.350128 1.06322 9.56708 0.30224 1.07781 9.56577 0.468658 1.01656 -19.3252 -2.37048 -2.38078 -19.3233 -3.32991 -3.17405 -0.0 0.0 -0.0 1.35394 12.7472 3.74921 -60.7311 -41.146 55.139 0.390097 -10.9374 0.037347 -82.7474 -8.16923 5.23433 -4.57837 0.870697 -31.8033 -0.0 0.0 -0.0 10.2312 -9.86708 -19.3067 90.0195 -70.4533 -1.40605 0.179838 5.09097 -0.00799491 85.32 4.46488 8.88078 -10.1403 -31.3178 47.4638 0.0 0.0 0.0 51.4145 -1.4473 -7.71318 -31.3236 -0.00890337 4.74766 37.1731 25.8995 -4.91603 35.8403 -0.0 -0.0 -0.0 0.0 -0.0 17.8533 18.783 -11.0659 -3.54443 -0.129622 -0.52843 39.8306 2.69357 4.88657 2.86976 -0.0 -0.0 0.0 0.0 0.0 
958.536521953 724.837 -1889.01990097 -27.6146232219 42.4562727413 22.8899400404 9.56872 0.26869 0.580016 9.56888 0.231238 0.595937 9.5709 0.204382 0.605673 9.57051 0.29747 0.565795 -20.3861 -2.96392 -2.44069 -20.3978 -4.49281 -3.52104 -0.0 0.0 -0.0 1.38135 13.0045 3.81582 -61.7143 -42.8608 56.8966 0.326557 -9.18913 0.026243 -84.8729 -8.43604 5.18769 -4.35462 -0.199942 -30.6668 -0.0 0.0 -0.0 10.3318 -8.10781 -19.6923 91.7607 -69.2067 -2.29486 0.183669 5.19883 -0.00833847 85.5471 4.49215 8.89105 -9.85924 -31.1738 45.2884 0.0 0.0 0.0 52.1814 -2.50142 -8.74609 -27.742 0.123908 4.21412 35.2378 26.1545 -4.72142 38.4877 -0.0 -0.0 -0.0 0.0 -0.0 16.1506 15.4765 -12.1647 -2.54579 -0.0964169 -0.378767 39.881 3.8418 4.90502 2.26519 -0.0 -0.0 0.0 0.0 0.0 
